<svg xmlns="http://www.w3.org/2000/svg" viewBox="0 0 200 200">
  <defs>
    <linearGradient id="benefitsGrad" x1="0%" y1="0%" x2="100%" y2="100%">
      <stop offset="0%" style="stop-color:#2ecc71;stop-opacity:1" />
      <stop offset="100%" style="stop-color:#3498db;stop-opacity:0.8" />
    </linearGradient>
  </defs>
  <!-- Background Shape -->
  <rect x="40" y="40" width="120" height="120" rx="20" fill="url(#benefitsGrad)" opacity="0.1" />
  <!-- Watch Outline -->
  <rect x="70" y="60" width="60" height="80" rx="10" fill="none" stroke="#2c3e50" stroke-width="4" />
  <!-- Watch Screen -->
  <rect x="75" y="65" width="50" height="70" rx="5" fill="#ecf0f1" />
  <!-- Brain Icon -->
  <path d="M100,75 C110,75 115,80 115,90 C115,95 120,95 120,100 C120,105 115,110 110,110 C105,110 105,115 100,115 C95,115 95,110 90,110 C85,110 80,105 80,100 C80,95 85,95 85,90 C85,80 90,75 100,75 Z" fill="url(#benefitsGrad)" />
  <!-- Lightning Bolt -->
  <path d="M100,85 L95,95 L105,95 L100,105" fill="none" stroke="#f1c40f" stroke-width="3" stroke-linecap="round" stroke-linejoin="round" />
  <!-- Stars -->
  <circle cx="85" cy="80" r="2" fill="#9b59b6" />
  <circle cx="115" cy="80" r="2" fill="#9b59b6" />
  <circle cx="80" cy="110" r="2" fill="#9b59b6" />
  <circle cx="120" cy="110" r="2" fill="#9b59b6" />
</svg>