<svg xmlns="http://www.w3.org/2000/svg" viewBox="0 0 200 200">
  <defs>
    <linearGradient id="watchGrad" x1="0%" y1="0%" x2="100%" y2="100%">
      <stop offset="0%" style="stop-color:#3498db;stop-opacity:1" />
      <stop offset="100%" style="stop-color:#2c3e50;stop-opacity:0.8" />
    </linearGradient>
  </defs>
  <!-- Watch Band Top -->
  <path d="M80,30 L120,30 C125,30 130,35 130,40 L130,60 L70,60 L70,40 C70,35 75,30 80,30 Z" fill="#34495e" />
  <!-- Watch Face -->
  <rect x="60" y="60" width="80" height="80" rx="10" fill="url(#watchGrad)" />
  <!-- Watch Screen -->
  <rect x="70" y="70" width="60" height="60" rx="5" fill="#ecf0f1" />
  <!-- Watch Band Bottom -->
  <path d="M70,140 L130,140 L130,160 C130,165 125,170 120,170 L80,170 C75,170 70,165 70,160 L70,140 Z" fill="#34495e" />
  <!-- Watch Elements -->
  <rect x="80" y="80" width="15" height="15" rx="2" fill="#e74c3c" />
  <rect x="105" y="80" width="15" height="15" rx="2" fill="#f1c40f" />
  <rect x="80" y="105" width="15" height="15" rx="2" fill="#2ecc71" />
  <rect x="105" y="105" width="15" height="15" rx="2" fill="#9b59b6" />
</svg>